<svg width="14" height="12" viewBox="0 0 14 12" fill="none" xmlns="http://www.w3.org/2000/svg">
<path d="M6.6001 11.2666C3.28676 11.2666 0.600098 8.87864 0.600098 5.93331C0.600098 2.98798 3.28676 0.599976 6.6001 0.599976C9.91343 0.599976 12.6001 2.98798 12.6001 5.93331C12.6001 6.89067 12.316 7.7892 11.8191 8.56614C11.7295 8.70631 11.7051 8.88006 11.7636 9.03586L12.2842 10.4244C12.4219 10.7916 12.1026 11.1671 11.718 11.0902L9.59915 10.6665C9.49371 10.6454 9.38452 10.6594 9.28621 10.703C8.44103 11.0775 7.52577 11.2698 6.6001 11.2666Z" stroke="#F0F0F0" stroke-width="1.2" stroke-linecap="round"/>
<path d="M3.80029 4.89734H9.40029" stroke="#F0F0F0" stroke-width="1.2" stroke-linecap="round"/>
<path d="M3.80029 7.29724H6.27686" stroke="#F0F0F0" stroke-width="1.2" stroke-linecap="round"/>
</svg>
